<svg width="80" height="50" viewBox="0 0 80 50" fill="none" xmlns="http://www.w3.org/2000/svg">
<path d="M7.27273 0C5.34388 0 3.49403 0.65848 2.13013 1.83058C0.766232 3.00268 0 4.5924 0 6.25V40.625H7.27273C7.27273 43.1114 8.42208 45.496 10.4679 47.2541C12.5138 49.0123 15.2885 50 18.1818 50C21.0751 50 23.8499 49.0123 25.8957 47.2541C27.9416 45.496 29.0909 43.1114 29.0909 40.625H50.9091C50.9091 43.1114 52.0584 45.496 54.1043 47.2541C56.1501 49.0123 58.9249 50 61.8182 50C64.7115 50 67.4862 49.0123 69.5321 47.2541C71.5779 45.496 72.7273 43.1114 72.7273 40.625H80V25L69.0909 12.5H58.1818V0H7.27273ZM32.7273 6.25L47.2727 18.75L32.7273 31.25V21.875H10.9091V15.625H32.7273V6.25ZM58.1818 17.1875H67.2727L74.4364 25H58.1818V17.1875ZM18.1818 35.9375C19.6285 35.9375 21.0158 36.4314 22.0388 37.3104C23.0617 38.1895 23.6364 39.3818 23.6364 40.625C23.6364 41.8682 23.0617 43.0605 22.0388 43.9396C21.0158 44.8186 19.6285 45.3125 18.1818 45.3125C16.7352 45.3125 15.3478 44.8186 14.3249 43.9396C13.3019 43.0605 12.7273 41.8682 12.7273 40.625C12.7273 39.3818 13.3019 38.1895 14.3249 37.3104C15.3478 36.4314 16.7352 35.9375 18.1818 35.9375ZM61.8182 35.9375C63.2648 35.9375 64.6522 36.4314 65.6751 37.3104C66.6981 38.1895 67.2727 39.3818 67.2727 40.625C67.2727 41.8682 66.6981 43.0605 65.6751 43.9396C64.6522 44.8186 63.2648 45.3125 61.8182 45.3125C60.3715 45.3125 58.9842 44.8186 57.9612 43.9396C56.9383 43.0605 56.3636 41.8682 56.3636 40.625C56.3636 39.3818 56.9383 38.1895 57.9612 37.3104C58.9842 36.4314 60.3715 35.9375 61.8182 35.9375Z" fill="#19A7F7"/>
</svg>
