<?xml version="1.0"?>
<svg xmlns="http://www.w3.org/2000/svg" xmlns:svg="http://www.w3.org/2000/svg" id="svg17040" height="512px" viewBox="0 0 16.933333 16.933334" width="512px" class=""><g><g id="layer1" transform="translate(0 -280.067)"><path id="path10363-4" d="m1.3430633 280.59579c-.44643003 0-.81494003.36799-.81494003.81442v12.65815c0 .44643.36851.81442.81494003.81442h12.6596897c.44644 0 .81494-.36799.81494-.81442v-12.65815c0-.44643-.3685-.81442-.81494-.81442z" fill="#e6b57c" font-variant-ligatures="normal" font-variant-position="normal" font-variant-caps="normal" font-variant-numeric="normal" font-variant-alternates="normal" font-feature-settings="normal" text-indent="0" text-align="start" text-decoration-line="none" text-decoration-style="solid" text-decoration-color="#000000" text-transform="none" text-orientation="mixed" white-space="normal" shape-padding="0" isolation="auto" mix-blend-mode="normal" solid-color="#000000" solid-opacity="1" vector-effect="none" data-original="#E6B57C" class=""/><g fill="#fdd5a6"><path id="path11958-9" d="m2.3818433 290.65061h2.6445401c.35286 0 .35286-.52929 0-.52929h-2.6581901c-.36547.0191-.33827.54646.0136.52929z" font-variant-ligatures="normal" font-variant-position="normal" font-variant-caps="normal" font-variant-numeric="normal" font-variant-alternates="normal" font-feature-settings="normal" text-indent="0" text-align="start" text-decoration-line="none" text-decoration-style="solid" text-decoration-color="#000000" text-transform="none" text-orientation="mixed" white-space="normal" shape-padding="0" isolation="auto" mix-blend-mode="normal" solid-color="#000000" solid-opacity="1" vector-effect="none" data-original="#FDD5A6" class=""/><path id="path11960-5" d="m2.3818833 291.44358a.26465001.26465001 0 1 0 0 .5293h1.58594a.26465001.26465001 0 1 0 0-.5293z" font-variant-ligatures="normal" font-variant-position="normal" font-variant-caps="normal" font-variant-numeric="normal" font-variant-alternates="normal" font-feature-settings="normal" text-indent="0" text-align="start" text-decoration-line="none" text-decoration-style="solid" text-decoration-color="#000000" text-transform="none" text-orientation="mixed" white-space="normal" shape-padding="0" isolation="auto" mix-blend-mode="normal" solid-color="#000000" solid-opacity="1" vector-effect="none" data-original="#FDD5A6" class=""/><path id="path11962-8" d="m2.3818833 292.76585a.26464856.26464856 0 1 0 0 .52929h2.6445501a.26464856.26464856 0 1 0 0-.52929z" font-variant-ligatures="normal" font-variant-position="normal" font-variant-caps="normal" font-variant-numeric="normal" font-variant-alternates="normal" font-feature-settings="normal" text-indent="0" text-align="start" text-decoration-line="none" text-decoration-style="solid" text-decoration-color="#000000" text-transform="none" text-orientation="mixed" white-space="normal" shape-padding="0" isolation="auto" mix-blend-mode="normal" solid-color="#000000" solid-opacity="1" vector-effect="none" data-original="#FDD5A6" class=""/><path id="path10382-5" d="m5.0264233 280.59579v3.70326c.00005.0704.0282.13788.0781.1875l.79297.79492c.1034301.10386.2715699.10386.3750001 0l.6074198-.60742.6054701.60742c.1034299.10386.2715699.10386.3750001 0l.6054698-.60742.6074201.60742c.1034299.10386.27157.10386.3750001 0l.7929696-.79492c.0499-.0496.078-.1171.0781-.1875v-3.70326z" font-variant-ligatures="normal" font-variant-position="normal" font-variant-caps="normal" font-variant-numeric="normal" font-variant-alternates="normal" font-feature-settings="normal" text-indent="0" text-align="start" text-decoration-line="none" text-decoration-style="solid" text-decoration-color="#000000" text-transform="none" text-orientation="mixed" white-space="normal" shape-padding="0" isolation="auto" mix-blend-mode="normal" solid-color="#000000" solid-opacity="1" vector-effect="none" data-original="#FDD5A6" class=""/></g><path id="path10820" d="m9.2613233 286.41624c-.43516 0-.79492.35976-.79492.79492v8.4668c0 .43516.35976.79297.79492.79297h6.3496097c.43516 0 .79297-.35781.79297-.79297v-8.4668c0-.43516-.35781-.79492-.79297-.79492z" fill="#ff6b6b" font-variant-ligatures="normal" font-variant-position="normal" font-variant-caps="normal" font-variant-numeric="normal" font-variant-alternates="normal" font-feature-settings="normal" text-indent="0" text-align="start" text-decoration-line="none" text-decoration-style="solid" text-decoration-color="#000000" text-transform="none" text-orientation="mixed" white-space="normal" shape-padding="0" isolation="auto" mix-blend-mode="normal" solid-color="#000000" solid-opacity="1" vector-effect="none" data-original="#FF6B6B" class="" style="fill:#69E781" data-old_color="#ff6b6b"/><path id="rect12187" d="m9.2613233 286.94553h6.3496097c.15115 0 .26367.11447.26367.26563v8.4668c0 .15115-.11252.26367-.26367.26367h-6.3496097c-.1511599 0-.26563-.11252-.26563-.26367v-8.4668c0-.15116.1144701-.26563.26563-.26563z" fill="#dbe9ee" font-variant-ligatures="normal" font-variant-position="normal" font-variant-caps="normal" font-variant-numeric="normal" font-variant-alternates="normal" font-feature-settings="normal" text-indent="0" text-align="start" text-decoration-line="none" text-decoration-style="solid" text-decoration-color="#000000" text-transform="none" text-orientation="mixed" white-space="normal" shape-padding="0" isolation="auto" mix-blend-mode="normal" solid-color="#000000" solid-opacity="1" vector-effect="none" data-original="#DBE9EE" class=""/><path id="path10834" d="m12.435413 285.09423c-.48954 0-.90126.33903-1.02061.79272h-.30179c-.43516 0-.7953.35962-.7953.79478v.52968c0 .43516.36014.79272.7953.79272h2.64428c.43516 0 .79479-.35756.79479-.79272v-.52968c0-.43516-.35963-.79478-.79479-.79478h-.30179c-.11935-.45369-.53057-.79272-1.02009-.79272z" fill="#33658a" font-variant-ligatures="normal" font-variant-position="normal" font-variant-caps="normal" font-variant-numeric="normal" font-variant-alternates="normal" font-feature-settings="normal" text-indent="0" text-align="start" text-decoration-line="none" text-decoration-style="solid" text-decoration-color="#000000" text-transform="none" text-orientation="mixed" white-space="normal" shape-padding="0" isolation="auto" mix-blend-mode="normal" solid-color="#000000" solid-opacity="1" vector-effect="none" data-original="#33658A" class="active-path" style="fill:#00AF80" data-old_color="#33658a"/><path id="path12191" d="m11.372653 289.06077c-.0693.002-.13526.0304-.1836.0801l-.87109.87109-.3417998-.34375c-.2499098-.26492-.6392699.12647-.3730498.375l.5292996.5293c.1032.10256.26985.10256.37305 0l1.05859-1.0586c.17072-.16804.0481-.45835-.1914-.45312z" fill="#33b9ef" font-variant-ligatures="normal" font-variant-position="normal" font-variant-caps="normal" font-variant-numeric="normal" font-variant-alternates="normal" font-feature-settings="normal" text-indent="0" text-align="start" text-decoration-line="none" text-decoration-style="solid" text-decoration-color="#000000" text-transform="none" text-orientation="mixed" white-space="normal" shape-padding="0" isolation="auto" mix-blend-mode="normal" solid-color="#000000" solid-opacity="1" vector-effect="none" data-original="#33B9EF" class=""/><path id="path12193" d="m11.189053 291.25608-.87109.8711-.3417998-.3418c-.2499098-.26492-.6392699.12647-.3730498.375l.5292996.5293c.1032.10256.26985.10256.37305 0l1.05859-1.0586c.17427-.16785.0505-.46224-.1914-.45508-.0693.002-.13526.0304-.1836.0801z" fill="#33b9ef" font-variant-ligatures="normal" font-variant-position="normal" font-variant-caps="normal" font-variant-numeric="normal" font-variant-alternates="normal" font-feature-settings="normal" text-indent="0" text-align="start" text-decoration-line="none" text-decoration-style="solid" text-decoration-color="#000000" text-transform="none" text-orientation="mixed" white-space="normal" shape-padding="0" isolation="auto" mix-blend-mode="normal" solid-color="#000000" solid-opacity="1" vector-effect="none" data-original="#33B9EF" class=""/><path id="path12195" d="m11.372653 291.176c-.0693.002-.13526.0304-.1836.0801l-.87109.8711-.3417998-.3418c-.2499098-.26492-.6392699.12647-.3730498.375l.5292996.5293c.1032.10256.26985.10256.37305 0l1.05859-1.0586c.17427-.16785.0505-.46224-.1914-.45507" fill="#33b9ef" font-variant-ligatures="normal" font-variant-position="normal" font-variant-caps="normal" font-variant-numeric="normal" font-variant-alternates="normal" font-feature-settings="normal" text-indent="0" text-align="start" text-decoration-line="none" text-decoration-style="solid" text-decoration-color="#000000" text-transform="none" text-orientation="mixed" white-space="normal" shape-padding="0" isolation="auto" mix-blend-mode="normal" solid-color="#000000" solid-opacity="1" vector-effect="none" data-original="#33B9EF" class=""/><path id="path12197" d="m11.189053 293.37327-.87109.87109-.3417998-.34179c-.2499098-.26492-.6392699.12647-.3730498.375l.5292996.52734c.1032.10256.26985.10256.37305 0l1.05859-1.05664c.17428-.16785.0505-.46224-.1914-.45508-.0693.002-.13526.0304-.1836.0801z" fill="#33b9ef" font-variant-ligatures="normal" font-variant-position="normal" font-variant-caps="normal" font-variant-numeric="normal" font-variant-alternates="normal" font-feature-settings="normal" text-indent="0" text-align="start" text-decoration-line="none" text-decoration-style="solid" text-decoration-color="#000000" text-transform="none" text-orientation="mixed" white-space="normal" shape-padding="0" isolation="auto" mix-blend-mode="normal" solid-color="#000000" solid-opacity="1" vector-effect="none" data-original="#33B9EF" class=""/><path id="path12199" d="m12.700733 290.12132h2.38086c.35286 0 .35286-.5293 0-.5293h-2.39451c-.36548.0191-.33828.54646.0136.5293z" fill="#33658a" font-variant-ligatures="normal" font-variant-position="normal" font-variant-caps="normal" font-variant-numeric="normal" font-variant-alternates="normal" font-feature-settings="normal" text-indent="0" text-align="start" text-decoration-line="none" text-decoration-style="solid" text-decoration-color="#000000" text-transform="none" text-orientation="mixed" white-space="normal" shape-padding="0" isolation="auto" mix-blend-mode="normal" solid-color="#000000" solid-opacity="1" vector-effect="none" data-original="#33658A" class="active-path" style="fill:#00AF80" data-old_color="#33658a"/><path id="path12201" d="m12.700733 292.23655h2.38086c.38249.0323.38249-.55963 0-.52734h-2.39451c-.34145.0389-.31641.52247.0136.52734z" fill="#33658a" font-variant-ligatures="normal" font-variant-position="normal" font-variant-caps="normal" font-variant-numeric="normal" font-variant-alternates="normal" font-feature-settings="normal" text-indent="0" text-align="start" text-decoration-line="none" text-decoration-style="solid" text-decoration-color="#000000" text-transform="none" text-orientation="mixed" white-space="normal" shape-padding="0" isolation="auto" mix-blend-mode="normal" solid-color="#000000" solid-opacity="1" vector-effect="none" data-original="#33658A" class="active-path" style="fill:#00AF80" data-old_color="#33658a"/><path id="path12203" d="m12.700773 293.82444c-.35286 0-.35286.5293 0 .5293h2.38086c.35286 0 .35286-.5293 0-.5293z" fill="#33658a" font-variant-ligatures="normal" font-variant-position="normal" font-variant-caps="normal" font-variant-numeric="normal" font-variant-alternates="normal" font-feature-settings="normal" text-indent="0" text-align="start" text-decoration-line="none" text-decoration-style="solid" text-decoration-color="#000000" text-transform="none" text-orientation="mixed" white-space="normal" shape-padding="0" isolation="auto" mix-blend-mode="normal" solid-color="#000000" solid-opacity="1" vector-effect="none" data-original="#33658A" class="active-path" style="fill:#00AF80" data-old_color="#33658a"/></g></g> </svg>
